{
    "accessors" : [
        {
            "bufferView" : 0,
            "componentType" : 5123,
            "count" : 7332,
            "max" : [
                7331
            ],
            "min" : [
                0
            ],
            "type" : "SCALAR"
        },
        {
            "bufferView" : 1,
            "componentType" : 5126,
            "count" : 7332,
            "max" : [
                1.3224890232086182,
                1.2946906089782715,
                1.629493236541748
            ],
            "min" : [
                -1.4311822652816772,
                -0.9411571025848389,
                -1.5539495944976807
            ],
            "type" : "VEC3"
        },
        {
            "bufferView" : 2,
            "componentType" : 5126,
            "count" : 7332,
            "max" : [
                0.99920654296875,
                0.9984130263328552,
                0.9955443143844604
            ],
            "min" : [
                -0.9983519911766052,
                -0.9944456219673157,
                -0.999755859375
            ],
            "type" : "VEC3"
        },
        {
            "bufferView" : 3,
            "componentType" : 5126,
            "count" : 7332,
            "max" : [
                0.9998859763145447,
                0.9994038939476013,
                0.9999058246612549,
                1.0
            ],
            "min" : [
                -0.9999512434005737,
                -0.999803900718689,
                -0.9998733997344971,
                1.0
            ],
            "type" : "VEC4"
        },
        {
            "bufferView" : 4,
            "componentType" : 5126,
            "count" : 7332,
            "max" : [
                1.0,
                1.0
            ],
            "min" : [
                0.0,
                0.0
            ],
            "type" : "VEC2"
        },
        {
            "bufferView" : 5,
            "componentType" : 5126,
            "count" : 7332,
            "max" : [
                5.960464477539063e-08,
                0.01233971118927002,
                0.055159926414489746
            ],
            "min" : [
                -5.960464477539063e-08,
                -1.2992197275161743,
                -0.8493833541870117
            ],
            "type" : "VEC3"
        },
        {
            "bufferView" : 6,
            "componentType" : 5126,
            "count" : 7332,
            "max" : [
                0.6777306795120239,
                0.9014598727226257,
                0.962361216545105
            ],
            "min" : [
                -0.5567025542259216,
                -0.9758837223052979,
                -1.1936733722686768
            ],
            "type" : "VEC3"
        },
        {
            "bufferView" : 7,
            "componentType" : 5126,
            "count" : 7332,
            "max" : [
                0.9997972846031189,
                0.9998119473457336,
                0.9995955228805542
            ],
            "min" : [
                -0.9995095729827881,
                -0.9989864230155945,
                -0.9998957514762878
            ],
            "type" : "VEC3"
        },
        {
            "bufferView" : 8,
            "componentType" : 5126,
            "count" : 7332,
            "max" : [
                0.11350858211517334,
                0.3208761215209961,
                0.0025429921224713326
            ],
            "min" : [
                -0.547581672668457,
                -1.0145598649978638,
                -0.31672370433807373
            ],
            "type" : "VEC3"
        },
        {
            "bufferView" : 9,
            "componentType" : 5126,
            "count" : 7332,
            "max" : [
                1.1231588125228882,
                0.9756110310554504,
                0.8685836791992188
            ],
            "min" : [
                -1.1991602182388306,
                -1.0688802003860474,
                -0.7424572706222534
            ],
            "type" : "VEC3"
        },
        {
            "bufferView" : 10,
            "componentType" : 5126,
            "count" : 7332,
            "max" : [
                0.9987940192222595,
                0.9996523857116699,
                0.9998142719268799
            ],
            "min" : [
                -0.9987883567810059,
                -0.9999071359634399,
                -0.9998272657394409
            ],
            "type" : "VEC3"
        },
        {
            "bufferView" : 11,
            "componentType" : 5126,
            "count" : 7332,
            "max" : [
                0.15497899055480957,
                0.000317990779876709,
                5.960464477539063e-08
            ],
            "min" : [
                -0.002113521099090576,
                -0.5454472303390503,
                -0.6179239153862
            ],
            "type" : "VEC3"
        },
        {
            "bufferView" : 12,
            "componentType" : 5126,
            "count" : 7332,
            "max" : [
                0.5033102035522461,
                0.6824414134025574,
                0.48065871000289917
            ],
            "min" : [
                -1.3455476760864258,
                -0.5943922400474548,
                -0.4551408290863037
            ],
            "type" : "VEC3"
        },
        {
            "bufferView" : 13,
            "componentType" : 5126,
            "count" : 7332,
            "max" : [
                0.9999986886978149,
                0.9997339248657227,
                0.99980229139328
            ],
            "min" : [
                -0.9999986290931702,
                -0.999842643737793,
                -0.9994001388549805
            ],
            "type" : "VEC3"
        },
        {
            "bufferView" : 14,
            "componentType" : 5126,
            "count" : 7332,
            "max" : [
                1.1818363666534424,
                0.0,
                0.2664097249507904
            ],
            "min" : [
                0.0,
                -0.7876967787742615,
                -0.001150771975517273
            ],
            "type" : "VEC3"
        },
        {
            "bufferView" : 15,
            "componentType" : 5126,
            "count" : 7332,
            "max" : [
                1.14302659034729,
                1.4898788928985596,
                1.3344056606292725
            ],
            "min" : [
                -0.7928611636161804,
                -1.7721014022827148,
                -1.7308738231658936
            ],
            "type" : "VEC3"
        },
        {
            "bufferView" : 16,
            "componentType" : 5126,
            "count" : 7332,
            "max" : [
                0.9999727010726929,
                0.9998311400413513,
                0.9996602535247803
            ],
            "min" : [
                -0.9999725818634033,
                -0.9997882843017578,
                -0.9996716976165771
            ],
            "type" : "VEC3"
        },
        {
            "bufferView" : 17,
            "componentType" : 5126,
            "count" : 7332,
            "max" : [
                0.9394682049751282,
                0.0,
                0.16022083163261414
            ],
            "min" : [
                0.0,
                -0.6076623797416687,
                -0.3365125060081482
            ],
            "type" : "VEC3"
        },
        {
            "bufferView" : 18,
            "componentType" : 5126,
            "count" : 7332,
            "max" : [
                1.4984333515167236,
                1.0465126037597656,
                1.947079062461853
            ],
            "min" : [
                -0.8098403215408325,
                -1.5021495819091797,
                -1.2722933292388916
            ],
            "type" : "VEC3"
        },
        {
            "bufferView" : 19,
            "componentType" : 5126,
            "count" : 7332,
            "max" : [
                0.9999976754188538,
                0.9998311400413513,
                0.9996602535247803
            ],
            "min" : [
                -0.999997615814209,
                -0.9997882843017578,
                -0.9998871684074402
            ],
            "type" : "VEC3"
        }
    ],
    "asset" : {
        "generator" : "Khronos Blender glTF 2.0 exporter",
        "version" : "2.0"
    },
    "bufferViews" : [
        {
            "buffer" : 0,
            "byteLength" : 14664,
            "byteOffset" : 0,
            "target" : 34963
        },
        {
            "buffer" : 0,
            "byteLength" : 87984,
            "byteOffset" : 14664,
            "target" : 34962
        },
        {
            "buffer" : 0,
            "byteLength" : 87984,
            "byteOffset" : 102648,
            "target" : 34962
        },
        {
            "buffer" : 0,
            "byteLength" : 117312,
            "byteOffset" : 190632,
            "target" : 34962
        },
        {
            "buffer" : 0,
            "byteLength" : 58656,
            "byteOffset" : 307944,
            "target" : 34962
        },
        {
            "buffer" : 0,
            "byteLength" : 87984,
            "byteOffset" : 366600
        },
        {
            "buffer" : 0,
            "byteLength" : 87984,
            "byteOffset" : 454584
        },
        {
            "buffer" : 0,
            "byteLength" : 87984,
            "byteOffset" : 542568
        },
        {
            "buffer" : 0,
            "byteLength" : 87984,
            "byteOffset" : 630552
        },
        {
            "buffer" : 0,
            "byteLength" : 87984,
            "byteOffset" : 718536
        },
        {
            "buffer" : 0,
            "byteLength" : 87984,
            "byteOffset" : 806520
        },
        {
            "buffer" : 0,
            "byteLength" : 87984,
            "byteOffset" : 894504
        },
        {
            "buffer" : 0,
            "byteLength" : 87984,
            "byteOffset" : 982488
        },
        {
            "buffer" : 0,
            "byteLength" : 87984,
            "byteOffset" : 1070472
        },
        {
            "buffer" : 0,
            "byteLength" : 87984,
            "byteOffset" : 1158456
        },
        {
            "buffer" : 0,
            "byteLength" : 87984,
            "byteOffset" : 1246440
        },
        {
            "buffer" : 0,
            "byteLength" : 87984,
            "byteOffset" : 1334424
        },
        {
            "buffer" : 0,
            "byteLength" : 87984,
            "byteOffset" : 1422408
        },
        {
            "buffer" : 0,
            "byteLength" : 87984,
            "byteOffset" : 1510392
        },
        {
            "buffer" : 0,
            "byteLength" : 87984,
            "byteOffset" : 1598376
        }
    ],
    "buffers" : [
        {
            "byteLength" : 1686360,
            "uri" : "cactus.bin"
        }
    ],
    "extensionsUsed" : [
        "KHR_materials_unlit"
    ],
    "materials" : [
        {
            "extensions" : {
                "KHR_materials_unlit" : {}
            },
            "name" : "Cactus",
            "pbrMetallicRoughness" : {
                "baseColorFactor" : [
                    0.6400000190734865,
                    0.6400000190734865,
                    0.6400000190734865,
                    1.0
                ],
                "metallicFactor" : 0.0,
                "roughnessFactor" : 0.9
            }
        }
    ],
    "meshes" : [
        {
            "extras" : {
                "targetNames" : [
                    "Key 1",
                    "Key 2",
                    "Key 3",
                    "Key 4",
                    "Key 5"
                ]
            },
            "name" : "cactus",
            "primitives" : [
                {
                    "attributes" : {
                        "NORMAL" : 2,
                        "POSITION" : 1,
                        "TANGENT" : 3,
                        "TEXCOORD_0" : 4
                    },
                    "indices" : 0,
                    "material" : 0,
                    "targets" : [
                        {
                            "NORMAL" : 6,
                            "POSITION" : 5,
                            "TANGENT" : 7
                        },
                        {
                            "NORMAL" : 9,
                            "POSITION" : 8,
                            "TANGENT" : 10
                        },
                        {
                            "NORMAL" : 12,
                            "POSITION" : 11,
                            "TANGENT" : 13
                        },
                        {
                            "NORMAL" : 15,
                            "POSITION" : 14,
                            "TANGENT" : 16
                        },
                        {
                            "NORMAL" : 18,
                            "POSITION" : 17,
                            "TANGENT" : 19
                        }
                    ]
                }
            ],
            "weights" : [
                0.0,
                0.0,
                0.0,
                0.0,
                0.0
            ]
        }
    ],
    "nodes" : [
        {
            "mesh" : 0,
            "name" : "cactus",
            "translation" : [
                0.0,
                0.7400168180465698,
                -0.0
            ]
        }
    ],
    "scene" : 0,
    "scenes" : [
        {
            "name" : "Scene",
            "nodes" : [
                0
            ]
        }
    ]
}
